# xmcd
#
# Track frame offsets:
#	150
#	14652
#	29316
#	48568
#	60649
#	75736
#	88879
#	108747
#	123763
#	140056
#	152533
#
# Disc length: 2250 seconds
#
# Revision: 1
# Processed by: cddbd v1.5.2PL0 Copyright (c) Steve Scherf et al.
# Submitted via: audiograbber 1.83.01
#
DISCID=9308c80b
DTITLE=The Southern Brothers Quartet - When The Cloud Roll Back
DYEAR=1900
DGENRE=Gospel
TTITLE0=When The Clouds Roll Back
TTITLE1=Do You Know That You Know
TTITLE2=He Signed My Pardon
TTITLE3=For The Fist Time
TTITLE4=If You Want To Go To Heaven
TTITLE5=God Loves You
TTITLE6=The Angels Were Singing
TTITLE7=Glory, Glory Jesus Won
TTITLE8=God's Just Setting Us Up
TTITLE9=Gonna Make My Getaway
TTITLE10=Lovin' You Lord
EXTD=
EXTT0=
EXTT1=
EXTT2=
EXTT3=
EXTT4=
EXTT5=
EXTT6=
EXTT7=
EXTT8=
EXTT9=
EXTT10=
PLAYORDER=
